<?xml version="1.0" encoding="UTF-8"?>
<svg id="Layer_1" xmlns="http://www.w3.org/2000/svg" xmlns:xlink="http://www.w3.org/1999/xlink" version="1.1" viewBox="0 0 598.7 627.2">
  <!-- Generator: Adobe Illustrator 29.3.1, SVG Export Plug-In . SVG Version: 2.1.0 Build 151)  -->
  <defs>
    <style>
      .st0 {
        isolation: isolate;
      }

      .st1 {
        stroke: #9e5000;
      }

      .st1, .st2 {
        fill: none;
        stroke-miterlimit: 3;
        stroke-width: .8px;
      }

      .st2 {
        stroke: #e53595;
      }
    </style>
  </defs>
  <g id="g9">
    <path id="e0" class="st1" d="M212.4,451.7h198v8.1h-198v-8.1h0Z"/>
    <path id="e1" class="st1" d="M185.4,410.7h252v90h-252v-90h0Z"/>
  </g>
  <g id="gec33402e-4fa9-49ed-9869-0f4fcc47f4e0">
    <image id="e2" class="st0" width="674" height="675" transform="translate(213.5 200) scale(.3)" xlink:href="Bash_Script_Meme_Earring_Holder-1.png"/>
  </g>
  <g id="g10">
    <path id="e4" class="st1" d="M410.4,396h-198v-184.7c0-54.7,44.3-99,99-99s99,44.3,99,99v184.7h0Z"/>
    <path id="e6" class="st2" d="M346.3,185.2c0,1.8-1.5,3.2-3.2,3.2s-3.2-1.4-3.2-3.2,1.5-3.2,3.2-3.2,3.2,1.4,3.2,3.2Z"/>
    <path id="e7" class="st2" d="M282.8,185.2c0,1.8-1.5,3.2-3.2,3.2-1.8,0-3.2-1.4-3.2-3.2s1.5-3.2,3.2-3.2c1.8,0,3.2,1.4,3.2,3.2Z"/>
  </g>
</svg>