<?xml version="1.0" encoding="UTF-8"?>
<svg id="Layer_1" xmlns="http://www.w3.org/2000/svg" xmlns:xlink="http://www.w3.org/1999/xlink" version="1.1" viewBox="0 0 598.7 627.2">
  <!-- Generator: Adobe Illustrator 29.3.1, SVG Export Plug-In . SVG Version: 2.1.0 Build 151)  -->
  <defs>
    <style>
      .st0 {
        isolation: isolate;
      }

      .st1 {
        stroke: #9e5000;
      }

      .st1, .st2 {
        fill: none;
        stroke-miterlimit: 3;
        stroke-width: .8px;
      }

      .st2 {
        stroke: #e53595;
      }
    </style>
  </defs>
  <g id="oEw">
    <g id="oE">
      <g id="g6d1e241f-5a50-4a54-be97-b517e4417290">
        <image id="e0" class="st0" width="375" height="476" transform="translate(203.2 171.1) scale(.5)" xlink:href="Kubernetes_Infra_Meme_Earring_Holder-1.png"/>
      </g>
    </g>
  </g>
  <g id="g9">
    <path id="e0-2" class="st1" d="M200.4,474.7h198v8.1h-198v-8.1h0Z"/>
    <path id="e1" class="st1" d="M173.4,433.7h252v90h-252v-90h0Z"/>
  </g>
  <g id="g10">
    <path id="e4" class="st1" d="M398.4,419h-198v-184.7c0-54.7,44.3-99,99-99s99,44.3,99,99v184.7h0Z"/>
    <path id="e6" class="st2" d="M334.3,208.2c0,1.8-1.5,3.2-3.2,3.2s-3.2-1.4-3.2-3.2,1.5-3.2,3.2-3.2,3.2,1.4,3.2,3.2Z"/>
    <path id="e7" class="st2" d="M270.8,208.2c0,1.8-1.5,3.2-3.2,3.2-1.8,0-3.2-1.4-3.2-3.2s1.5-3.2,3.2-3.2c1.8,0,3.2,1.4,3.2,3.2Z"/>
  </g>
</svg>